<?xml version="1.0" encoding="utf-8"?>
<!-- Generator: Adobe Illustrator 15.0.0, SVG Export Plug-In . SVG Version: 6.00 Build 0)  -->
<!DOCTYPE svg PUBLIC "-//W3C//DTD SVG 1.1//EN" "http://www.w3.org/Graphics/SVG/1.1/DTD/svg11.dtd">
<svg version="1.1" id="Layer_1" xmlns="http://www.w3.org/2000/svg" xmlns:xlink="http://www.w3.org/1999/xlink" x="0px" y="0px"
	 width="26px" height="26px" viewBox="0 0 26 26" enable-background="new 0 0 26 26" xml:space="preserve">
<path d="M21.486,12.63c0.229,0.012,1.288,0.024,1.52,0.039l-1.793-6.162h-0.032c0.308-0.134,0.52-0.396,0.52-0.702V5.34
	c0-0.44-0.437-0.798-0.975-0.798H5.3c-0.538,0-0.974,0.357-0.974,0.798v0.465c0,0.306,0.211,0.567,0.519,0.702H4.813l-1.762,6.281
	c0.01-0.002,1.06-0.036,1.487-0.085v8.569H3.789v1.396h18.416v-1.396h-0.718V12.63z M16.263,7.305l0.332,4.716
	c-0.84-0.024-1.631-0.04-2.383-0.05l-0.101-4.666c0-0.306,0.212-0.568,0.52-0.702h1.112C16.052,6.737,16.263,7,16.263,7.305z
	 M12.2,7.305L12.1,11.959c-0.866,0.004-1.658,0.016-2.382,0.033l0.33-4.687c0-0.306,0.212-0.568,0.52-0.702h1.114
	C11.989,6.737,12.2,7,12.2,7.305z M6.03,7.305C6.03,7,6.242,6.737,6.55,6.603h1.113C7.97,6.737,8.182,7,8.182,7.305l-0.538,4.762
	c-1.009,0.049-1.807,0.109-2.41,0.164L6.03,7.305z M14.455,17.629H6.172v-3.84h8.283V17.629z M19.771,20.41h-3.217v-6.621h3.217
	V20.41z M18.67,12.093l-0.54-4.788c0-0.306,0.212-0.568,0.519-0.702h1.114C20.069,6.737,20.281,7,20.281,7.305l0.793,4.901
	C20.239,12.162,19.438,12.125,18.67,12.093z"/>
</svg>
